# xmcd
#
# Track frame offsets:
#	150
#	23270
#	43233
#	67666
#	99194
#	118329
#	142629
#	164811
#	184929
#	222816
#	251250
#	271616
#	295605
#	311432
#
# Disc length: 4492 seconds
#
# Revision: 1
# Processed by: cddbd v1.5.1PL2 Copyright (c) Steve Scherf et al.
# Submitted via: audiograbber 1.83.01
#
DISCID=b4118a0e
DTITLE=Various Artist - Veranda Mykonos
DYEAR=2006
DGENRE=
TTITLE0=Chris Spheeris - Culture
TTITLE1=Kalliopi Vetta - To pathos - Passion (based on 'O Pastor')
TTITLE2=Tanghetto - Enjoy the silence
TTITLE3=Chico Freeman feat Athina Kostavara - Filaraki
TTITLE4=Pornorama - Bon voyage
TTITLE5=Eldissa  - Fame
TTITLE6=Cecilia Gayle - La vida es un carnaval
TTITLE7=T-Kolai - Brasilia carnaval (radio edit)
TTITLE8=The Cube Guys - Te Quiero (Intrallazzi and Provera Miami mix)
TTITLE9=Chew-Fu - Stand by me (original extended)
TTITLE10=Aurora - Summer son (radio edit)
TTITLE11=Axwell feat Steve Edwards - Watch the sunrise (extended mix)
TTITLE12=Phats 'n' small - Sweet dreams (radio edit)
TTITLE13=Thc and Nick the A - Computer guy (dancefloor mix)
EXTD=
EXTT0=
EXTT1=
EXTT2=
EXTT3=
EXTT4=
EXTT5=
EXTT6=
EXTT7=
EXTT8=
EXTT9=
EXTT10=
EXTT11=
EXTT12=
EXTT13=
PLAYORDER=
